# xmcd
#
# Track frame offsets:
#	150
#	20855
#	35489
#	55526
#	70575
#	86578
#	103008
#	121811
#	134237
#	150820
#	172930
#	191602
#
# Disc length: 2769 seconds
#
# Revision: 0
# Processed by: cddbd v1.5.2PL0 Copyright (c) Steve Scherf et al.
# Submitted via: dBpowerAMP V4.0
#
DISCID=960acf0c
DTITLE=Rhianna - Rhianna
DYEAR=2007
DGENRE=R&B
TTITLE0=Umbrella
TTITLE1=Push up on me
TTITLE2=Dont stop the music
TTITLE3=Breakin dishes
TTITLE4=Shut up and drive
TTITLE5=Hate that i love you
TTITLE6=Say it
TTITLE7=Sell me candy
TTITLE8=Lemme get that
TTITLE9=Rehab
TTITLE10=Question existing
TTITLE11=Good girl gone bad
EXTD=
EXTT0=
EXTT1=
EXTT2=
EXTT3=
EXTT4=
EXTT5=
EXTT6=
EXTT7=
EXTT8=
EXTT9=
EXTT10=
EXTT11=
PLAYORDER=
